<?xml version="1.0" encoding="utf-8"?>
<!-- Generator: Adobe Illustrator 23.0.3, SVG Export Plug-In . SVG Version: 6.00 Build 0)  -->
<svg version="1.1" id="Layer_1" xmlns="http://www.w3.org/2000/svg" xmlns:xlink="http://www.w3.org/1999/xlink" x="0px" y="0px"
	 viewBox="0 0 448 512" style="enable-background:new 0 0 448 512;" xml:space="preserve">
<style type="text/css">
	.st0{fill:#FFFFFF;}
</style>
<path class="st0" d="M16,132h416c8.8,0,16-7.2,16-16V76c0-8.8-7.2-16-16-16H16C7.2,60,0,67.2,0,76v40C0,124.8,7.2,132,16,132z
	 M16,292h416c8.8,0,16-7.2,16-16v-40c0-8.8-7.2-16-16-16H16c-8.8,0-16,7.2-16,16v40C0,284.8,7.2,292,16,292z M16,452h416
	c8.8,0,16-7.2,16-16v-40c0-8.8-7.2-16-16-16H16c-8.8,0-16,7.2-16,16v40C0,444.8,7.2,452,16,452z"/>
<path d="M954,10h416c8.8,0,16-7.2,16-16v-40c0-8.8-7.2-16-16-16H954c-8.8,0-16,7.2-16,16v40C938,2.8,945.2,10,954,10z"/>
<g>
	<path class="st0" d="M946.6,137.1l303.7,284.3c6.4,6,16.6,5.7,22.6-0.7l27.3-29.2c6-6.4,5.7-16.6-0.7-22.6L995.8,84.6
		c-6.4-6-16.6-5.7-22.6,0.7l-27.3,29.2C939.8,120.9,940.1,131.1,946.6,137.1z"/>
	<path class="st0" d="M997.5,427.2l297.3-290.9c6.3-6.2,6.4-16.3,0.2-22.6l-28-28.6c-6.2-6.3-16.3-6.4-22.6-0.2L947.2,375.7
		c-6.3,6.2-6.4,16.3-0.2,22.6l28,28.6C981,433.2,991.2,433.4,997.5,427.2z"/>
</g>
</svg>
