<svg id="Layer_1" data-name="Layer 1" xmlns="http://www.w3.org/2000/svg" viewBox="0 0 8.9 6.63"><defs><style>.cls-1{fill:#fff;}</style></defs><path class="cls-1" d="M2,.12A1.88,1.88,0,0,1,3.49.78,2.06,2.06,0,0,1,4,1.52a2.55,2.55,0,0,1,.17.89,3.53,3.53,0,0,1-.62,1.9A5.21,5.21,0,0,1,1.86,5.94,2.74,2.74,0,0,1,.5,6.52.44.44,0,0,1,.18,6.4a.41.41,0,0,1-.13-.32.56.56,0,0,1,.37-.49,4.89,4.89,0,0,0,1.32-.92c.26-.28.39-.49.39-.62s-.1-.2-.3-.23l-.12,0H1.56a1.61,1.61,0,0,1-1-.6A1.84,1.84,0,0,1,.12,2,1.78,1.78,0,0,1,.61.72,1.88,1.88,0,0,1,2,.12Z"/><path class="cls-1" d="M6.77.12A1.92,1.92,0,0,1,8.23.78a2.19,2.19,0,0,1,.45.74,2.55,2.55,0,0,1,.17.89,3.6,3.6,0,0,1-.61,1.9A5.43,5.43,0,0,1,6.6,5.94a2.77,2.77,0,0,1-1.37.58.44.44,0,0,1-.32-.12.41.41,0,0,1-.13-.32.56.56,0,0,1,.37-.49,4.89,4.89,0,0,0,1.32-.92c.26-.28.39-.49.39-.62s-.1-.2-.29-.23l-.13,0H6.29a1.61,1.61,0,0,1-1-.6A1.84,1.84,0,0,1,4.85,2,1.78,1.78,0,0,1,5.34.72,1.88,1.88,0,0,1,6.77.12Z"/></svg>