<svg id="Layer_1" data-name="Layer 1" xmlns="http://www.w3.org/2000/svg" viewBox="0 0 8.9 6.63"><defs><style>.cls-1{fill:#fff;}</style></defs><path class="cls-1" d="M6.86,6.56a1.91,1.91,0,0,1-1.45-.67A2.38,2.38,0,0,1,5,5.15a2.54,2.54,0,0,1-.16-.89,3.52,3.52,0,0,1,.61-1.9A5.32,5.32,0,0,1,7,.73,2.74,2.74,0,0,1,8.4.15a.48.48,0,0,1,.33.12.44.44,0,0,1,.13.32c0,.2-.13.36-.38.49A4.66,4.66,0,0,0,7.17,2c-.27.28-.4.49-.4.62s.1.2.3.23l.13,0h.15a1.66,1.66,0,0,1,1,.6,1.89,1.89,0,0,1,.4,1.21A1.78,1.78,0,0,1,8.29,6,1.87,1.87,0,0,1,6.86,6.56Z"/><path class="cls-1" d="M2.13,6.56A1.89,1.89,0,0,1,.68,5.89a2.21,2.21,0,0,1-.46-.74,2.55,2.55,0,0,1-.17-.89,3.53,3.53,0,0,1,.62-1.9A5.32,5.32,0,0,1,2.31.73,2.74,2.74,0,0,1,3.67.15.48.48,0,0,1,4,.27a.44.44,0,0,1,.13.32c0,.2-.13.36-.38.49A4.66,4.66,0,0,0,2.44,2c-.27.28-.4.49-.4.62s.1.2.3.23l.13,0h.14a1.65,1.65,0,0,1,1.05.6,1.89,1.89,0,0,1,.4,1.21A1.78,1.78,0,0,1,3.56,6,1.87,1.87,0,0,1,2.13,6.56Z"/></svg>