<?xml version="1.0" encoding="utf-8"?>
<!-- Generator: Adobe Illustrator 23.0.3, SVG Export Plug-In . SVG Version: 6.00 Build 0)  -->
<svg version="1.1" id="Layer_1" xmlns="http://www.w3.org/2000/svg" xmlns:xlink="http://www.w3.org/1999/xlink" x="0px" y="0px"
	 viewBox="0 0 448 512" style="enable-background:new 0 0 448 512;" xml:space="preserve">
<style type="text/css">
	.st0{fill:#FFFFFF;}
</style>
<g>
	<path class="st0" d="M21.8,119.7l348,325.8c7.4,6.9,19,6.5,25.9-0.9l31.3-33.5c6.9-7.4,6.5-19-0.9-25.9L78.2,59.5
		c-7.4-6.9-19-6.5-25.9,0.9L20.9,93.8C14,101.2,14.4,112.9,21.8,119.7z"/>
	<path class="st0" d="M80.2,452.2l340.8-333.4c7.2-7.1,7.3-18.7,0.3-25.9l-32.1-32.8c-7.1-7.2-18.7-7.3-25.9-0.3L22.5,393.2
		c-7.2,7.1-7.3,18.7-0.3,25.9l32.1,32.8C61.3,459.1,73,459.3,80.2,452.2z"/>
</g>
</svg>
